<?xml version="1.0" encoding="UTF-8" standalone="no"?>
<!-- Created with Inkscape (http://www.inkscape.org/) -->

<svg
   version="1.1"
   id="svg1"
   width="1200"
   height="1200"
   viewBox="0 0 1200 1200"
   xml:space="preserve"
   sodipodi:docname="sdsdsdsd.svg"
   inkscape:version="1.4.3 (0d15f75, 2025-12-25)"
   inkscape:export-filename="sdsdsdsd.svg"
   inkscape:export-xdpi="96"
   inkscape:export-ydpi="96"
   xmlns:inkscape="http://www.inkscape.org/namespaces/inkscape"
   xmlns:sodipodi="http://sodipodi.sourceforge.net/DTD/sodipodi-0.dtd"
   xmlns="http://www.w3.org/2000/svg"
   xmlns:svg="http://www.w3.org/2000/svg"><sodipodi:namedview
     id="namedview1"
     pagecolor="#ffffff"
     bordercolor="#000000"
     borderopacity="0.25"
     inkscape:showpageshadow="2"
     inkscape:pageopacity="0.0"
     inkscape:pagecheckerboard="0"
     inkscape:deskcolor="#d1d1d1"
     inkscape:zoom="0.29598585"
     inkscape:cx="140.2094"
     inkscape:cy="1364.9301"
     inkscape:current-layer="g1" /><defs
     id="defs1"><rect
       x="635.16547"
       y="1716.2982"
       width="1003.4263"
       height="250.01195"
       id="rect3" /><clipPath
       clipPathUnits="userSpaceOnUse"
       id="clipPath1"><rect
         style="opacity:0.263;fill:#2d9b77;fill-opacity:0.525362;fill-rule:evenodd;stroke-width:0"
         id="rect2"
         width="2022.8855"
         height="2718.8059"
         x="-1971.8657"
         y="948.6153" /></clipPath><filter
       inkscape:label="Metal Casting"
       inkscape:menu="Bevels"
       inkscape:menu-tooltip="Smooth drop-like bevel with metallic finish"
       style="color-interpolation-filters:sRGB"
       id="filter1"
       x="-0.01061923"
       y="-0.0098748939"
       width="1.0212385"
       height="1.0197498"><feConvolveMatrix
         targetY="1"
         targetX="1"
         in="SourceGraphic"
         divisor="1"
         kernelMatrix="0 -0.3 0 -0.3 2.2 -0.3 0 -0.3 0"
         order="3 3"
         result="result1"
         id="feConvolveMatrix1" /><feBlend
         in2="SourceGraphic"
         mode="normal"
         result="fbSourceGraphic"
         id="feBlend1" /><feColorMatrix
         result="fbSourceGraphicAlpha"
         in="fbSourceGraphic"
         values="0 0 0 -1 0 0 0 0 -1 0 0 0 0 -1 0 0 0 0 1 0"
         id="feColorMatrix2" /><feColorMatrix
         id="feColorMatrix3"
         values="0.37"
         type="saturate"
         in="fbSourceGraphic"
         result="result1" /><feGaussianBlur
         id="feGaussianBlur3"
         stdDeviation="7"
         in="fbSourceGraphicAlpha" /><feSpecularLighting
         id="feSpecularLighting3"
         specularExponent="8"
         specularConstant="3.88000011"
         surfaceScale="10"><feDistantLight
           id="feDistantLight3"
           azimuth="225"
           elevation="17" /></feSpecularLighting><feComposite
         id="feComposite3"
         in2="result1"
         operator="atop" /></filter></defs><g
     id="g1"
     transform="translate(2386.3301,3194.271)"><g
       id="g341"
       transform="matrix(0.69783509,0,0,0.69852944,-1212.1645,-4351.0636)"
       clip-path="url(#clipPath1)"
       style="display:inline"><path
         style="fill:#30504b;fill-opacity:1;stroke-width:1.41982;filter:url(#filter1)"
         d="m -1613.799,3004.3031 v -240.5053 l 756.62568,343.579 V 3038.661 L -1613.799,2695.082 v -206.1473 l 275.1367,-160.1366 v 263.2103 l 515.88108,240.5052 V 2385.861 l 412.70489,206.1474 v 584.0841 l -412.70489,189.5368 z m 1272.50687,103.0737 v -549.7263 l -481.48909,-240.5053 -344.75668,190.4254 0.836,-327.857 309.52858,-171.7894 807.447782,446.6526 v 515.3684 z m -1272.50687,-996.379 791.01778,-446.6526 791.017787,446.6526 V 2385.861 L -822.78122,1939.2084 -1613.799,2385.861 Z"
         id="path3" /></g><g
       id="g23"
       transform="matrix(0.69783509,0,0,0.69852944,-1212.1645,-4351.0636)"
       clip-path="url(#clipPath1)"
       style="display:inline;opacity:0;mix-blend-mode:screen;fill:#7e7e7e;fill-opacity:0.608696"><path
         style="fill:#7e7e7e;fill-opacity:0.608696;stroke-width:1.41982;filter:url(#filter1)"
         d="m -1613.799,3004.3031 v -240.5053 l 756.62568,343.579 V 3038.661 L -1613.799,2695.082 v -206.1473 l 275.1367,-160.1366 v 263.2103 l 515.88108,240.5052 V 2385.861 l 412.70489,206.1474 v 584.0841 l -412.70489,189.5368 z m 1272.50687,103.0737 v -549.7263 l -481.48909,-240.5053 -344.75668,190.4254 0.836,-327.857 309.52858,-171.7894 807.447782,446.6526 v 515.3684 z m -1272.50687,-996.379 791.01778,-446.6526 791.017787,446.6526 V 2385.861 L -822.78122,1939.2084 -1613.799,2385.861 Z"
         id="path23" /></g></g></svg>
